<?xml version="1.0" standalone="no"?>
<!DOCTYPE svg PUBLIC "-//W3C//DTD SVG 20010904//EN"
 "http://www.w3.org/TR/2001/REC-SVG-20010904/DTD/svg10.dtd">
<svg version="1.0" xmlns="http://www.w3.org/2000/svg"
 width="1000.000000pt" height="1000.000000pt" viewBox="0 0 1000.000000 1000.000000"
 preserveAspectRatio="xMidYMid meet">
<metadata>
Created by potrace 1.14, written by Peter Selinger 2001-2017
</metadata>
<g transform="translate(0.000000,1000.000000) scale(0.100000,-0.100000)"
fill="#000000" stroke="none">
<path d="M0 5650 l0 -3740 895 0 896 0 -1 1867 c-1 1027 -6 1877 -11 1889 -5
14 -4 26 2 29 5 4 7 11 3 16 -3 5 -8 62 -10 127 -11 284 -16 386 -29 562 -3
36 -8 119 -11 185 -8 147 -12 200 -14 200 0 0 -3 34 -5 75 -2 41 -6 107 -9
145 -3 39 -8 108 -12 155 -3 46 -6 87 -6 90 -3 32 4 50 20 50 21 0 27 -16 68
-165 2 -5 5 -19 8 -30 2 -11 16 -60 31 -110 15 -49 28 -97 30 -105 2 -8 4 -15
5 -15 1 0 3 -9 5 -19 2 -10 10 -40 18 -65 8 -25 18 -59 23 -76 4 -16 8 -32 9
-35 18 -59 29 -97 31 -105 1 -5 7 -30 14 -55 7 -25 13 -49 14 -55 1 -5 4 -14
8 -20 3 -5 9 -26 12 -45 4 -19 11 -44 15 -55 8 -18 70 -236 75 -260 2 -10 20
-74 56 -198 48 -166 74 -258 85 -302 5 -21 7 -25 16 -57 26 -85 71 -246 75
-267 3 -13 9 -32 14 -41 5 -10 12 -32 15 -51 3 -19 10 -45 15 -59 8 -22 35
-118 46 -160 2 -8 13 -46 24 -85 12 -38 23 -77 25 -85 1 -8 26 -94 54 -190 27
-97 57 -200 65 -230 8 -30 24 -86 36 -125 20 -68 26 -86 34 -122 2 -10 23 -83
46 -163 23 -80 52 -183 65 -230 13 -47 31 -107 40 -135 9 -27 18 -60 21 -73 2
-13 23 -87 45 -165 23 -78 43 -150 44 -160 2 -9 6 -21 9 -25 3 -5 7 -19 10
-33 4 -21 17 -66 78 -274 6 -22 13 -44 14 -50 1 -5 10 -37 19 -70 10 -33 24
-85 32 -115 8 -30 17 -62 20 -70 3 -8 7 -19 8 -25 2 -5 8 -28 14 -50 6 -22 11
-44 12 -50 0 -5 5 -17 10 -26 4 -9 10 -28 13 -44 3 -15 15 -60 26 -99 12 -39
28 -96 37 -126 8 -30 18 -62 21 -70 3 -8 6 -22 8 -30 2 -8 10 -39 19 -67 l17
-53 959 0 959 0 10 25 c5 14 12 36 14 48 3 12 12 47 21 77 9 30 18 62 20 70 2
8 4 15 5 15 1 0 3 7 5 15 13 56 47 179 55 200 6 14 12 34 14 45 7 36 27 109
36 135 6 14 11 34 13 45 2 11 7 27 10 35 4 8 13 40 21 70 8 30 24 91 36 135
12 44 23 84 25 90 1 5 4 17 7 25 8 22 57 199 73 260 0 3 7 23 15 45 7 22 15
49 16 60 3 21 41 159 51 185 3 8 7 22 9 30 1 8 24 91 50 184 l48 168 36 -43
c67 -83 271 -279 289 -279 5 0 14 -6 20 -14 19 -22 151 -111 251 -168 14 -8
49 -29 78 -46 28 -17 52 -29 52 -25 0 3 8 -1 18 -9 9 -8 53 -32 97 -53 44 -21
82 -39 84 -41 3 -3 5 -961 2 -1025 -1 -14 -16 -13 -123 12 -108 25 -210 50
-258 64 -128 35 -244 69 -280 81 -25 9 -52 17 -60 19 -17 5 -97 32 -120 42 -8
3 -17 7 -20 8 -3 1 -18 7 -33 13 -16 7 -31 12 -35 12 -4 0 -68 25 -142 55 -74
30 -136 55 -137 55 -2 0 -3 -359 -3 -799 l0 -799 88 -30 c157 -56 254 -86 299
-94 5 0 37 -11 73 -23 36 -12 71 -20 78 -17 7 2 18 0 25 -6 7 -5 30 -13 52
-17 70 -12 90 -17 148 -30 12 -3 36 -8 52 -10 30 -4 63 -10 128 -21 47 -8 76
-12 137 -19 30 -4 73 -9 95 -11 200 -26 488 -38 855 -38 336 0 517 7 660 28
19 3 55 8 80 11 99 14 118 17 173 30 12 3 36 7 52 9 17 2 37 6 45 10 8 3 26 7
40 10 14 2 66 16 115 31 50 14 97 28 105 30 15 4 114 40 179 65 18 7 86 40
150 72 64 33 131 67 149 76 17 9 32 20 32 24 0 4 18 17 40 28 22 11 40 26 40
32 0 6 3 9 6 5 4 -3 12 -1 19 6 6 7 32 28 56 47 80 63 239 229 239 250 0 6 3
10 8 10 4 0 18 17 32 38 14 20 27 39 30 42 5 5 18 28 62 106 64 117 130 298
162 444 3 11 8 25 12 32 5 7 3 8 -5 3 -10 -6 -11 -3 -3 11 40 76 51 567 17
793 -2 14 -7 44 -10 66 -7 53 -53 225 -65 247 -6 10 -10 25 -10 33 0 8 -4 23
-10 33 -5 9 -25 51 -44 93 -36 77 -129 225 -182 288 -39 47 -174 180 -214 211
-17 14 -46 37 -63 52 -18 15 -37 28 -44 28 -6 0 -13 3 -15 8 -1 4 -35 28 -73
52 -39 25 -80 51 -90 58 -11 6 -27 15 -35 19 -8 4 -17 9 -20 13 -5 6 -362 182
-405 200 -20 8 -95 41 -146 64 -21 9 -26 18 -28 56 -2 61 -1 112 4 120 2 3 0
12 -5 20 -4 7 -4 24 0 36 6 15 5 26 -1 30 -6 3 -6 11 -1 17 4 7 7 23 5 37 -7
53 -8 110 -1 110 4 0 3 12 -1 28 -4 15 -5 38 -1 52 3 13 3 46 0 71 -3 26 -3
56 1 66 4 11 3 26 -1 33 -5 7 -5 23 0 35 5 12 5 28 0 35 -5 7 -5 23 -1 34 5
12 6 27 4 34 -3 7 1 10 9 8 7 -3 54 -17 103 -31 224 -66 539 -179 718 -259
l58 -26 20 47 c25 57 36 85 38 95 1 4 17 43 37 85 20 43 37 83 38 88 2 6 11
28 21 50 19 45 38 87 40 95 1 3 10 25 21 50 10 25 18 48 16 53 -1 4 2 7 7 7 7
0 20 32 22 57 0 5 4 13 9 18 4 6 31 66 60 135 29 69 88 210 132 314 44 104 76
192 71 196 -4 4 -37 20 -73 35 -36 15 -84 36 -107 46 -24 11 -46 19 -49 19 -3
0 -20 6 -37 14 -48 22 -306 116 -317 116 -6 0 -18 4 -28 10 -22 12 -297 94
-351 105 -11 2 -25 6 -29 9 -5 3 -24 8 -43 11 -19 3 -50 10 -69 15 -19 5 -46
11 -60 14 -14 2 -25 5 -25 6 0 1 -11 3 -25 5 -14 1 -50 7 -80 13 -30 6 -70 13
-88 16 -19 2 -36 7 -39 10 -8 7 -7 112 1 124 3 6 2 13 -4 17 -6 4 -7 11 -4 17
9 14 9 92 0 106 -3 6 -2 13 2 16 5 3 7 18 5 33 -7 50 -8 113 -1 113 4 0 3 13
-2 29 -4 16 -6 32 -3 35 3 3 5 31 3 63 -1 32 -1 67 0 78 1 11 1 26 1 33 -2 30
-2 39 -1 67 0 17 -1 45 -3 63 -2 17 0 32 4 32 3 0 3 18 -1 39 -4 22 -3 45 1
52 4 8 3 19 -2 25 -6 7 -6 14 -2 17 5 3 6 37 3 76 -3 40 -2 80 1 90 4 10 3 24
-1 31 -5 7 -4 24 0 36 6 15 5 26 -1 30 -6 3 -6 11 -1 17 4 7 7 23 5 37 -7 53
-8 110 -1 110 4 0 3 13 -2 29 -4 16 -6 32 -3 35 5 5 5 86 0 141 -1 17 1 42 4
56 4 15 3 32 -1 40 -5 7 -4 21 1 30 6 12 5 20 -1 24 -6 4 -7 11 -4 17 6 10 7
80 1 153 -1 17 1 42 4 56 4 15 3 32 -1 40 -5 7 -4 21 1 30 6 12 5 20 -1 24 -8
5 -8 11 -1 19 6 7 9 15 6 17 -2 3 -4 36 -4 74 -1 88 -1 102 -2 118 0 6 0 26 1
42 0 17 -1 45 -3 63 -2 17 0 32 4 32 3 0 3 18 -1 39 -4 22 -3 45 1 52 4 8 3
19 -2 25 -7 8 -6 14 1 19 6 3 8 10 6 14 -3 4 -5 39 -5 77 -1 38 -1 78 -1 89 0
11 0 35 0 53 l1 32 -1353 -2 c-1034 -2 -1352 -6 -1351 -15 2 -6 -4 -28 -12
-47 -9 -20 -15 -37 -14 -38 1 -2 -5 -23 -12 -48 -7 -25 -13 -49 -14 -55 -3
-11 -44 -153 -50 -173 -3 -7 -5 -14 -5 -17 -1 -3 -6 -19 -11 -37 -6 -18 -12
-44 -15 -57 -3 -13 -13 -49 -23 -80 -11 -31 -23 -69 -27 -86 -10 -41 -11 -45
-14 -47 -1 -2 -3 -10 -5 -18 -2 -8 -22 -80 -45 -160 -24 -80 -44 -152 -44
-160 -1 -9 -5 -20 -8 -25 -3 -6 -16 -48 -28 -95 -13 -47 -27 -91 -33 -97 -5
-7 -7 -13 -3 -13 3 0 1 -11 -4 -25 -5 -14 -12 -36 -14 -48 -3 -12 -14 -53 -26
-92 -12 -38 -23 -80 -26 -93 -2 -13 -11 -42 -19 -65 -7 -23 -19 -62 -25 -87
-6 -25 -14 -52 -17 -60 -3 -8 -7 -19 -8 -25 -2 -5 -11 -37 -20 -70 -10 -33
-17 -61 -16 -63 1 -1 -5 -18 -13 -37 -8 -19 -13 -35 -11 -35 2 0 -5 -26 -16
-57 -11 -32 -19 -58 -18 -58 1 0 -6 -27 -16 -60 -9 -33 -18 -64 -19 -70 -3
-11 -35 -120 -68 -230 -12 -38 -23 -77 -24 -85 -1 -8 -15 -59 -32 -113 -17
-54 -31 -100 -31 -102 -1 -3 -1 -6 -2 -7 0 -2 -2 -10 -4 -18 -2 -8 -16 -55
-30 -105 -15 -49 -28 -97 -30 -105 -2 -8 -4 -15 -5 -15 -1 0 -3 -7 -5 -15 -1
-8 -9 -35 -16 -60 -15 -54 -14 -52 -21 -70 -7 -17 -168 -583 -172 -603 -2 -6
-6 -19 -9 -27 -3 -8 -33 -114 -67 -235 -34 -121 -65 -229 -70 -240 -10 -25
-32 -105 -35 -125 -1 -8 -5 -22 -8 -30 -7 -17 -47 -155 -52 -179 -2 -9 -26
-92 -54 -186 -27 -93 -51 -179 -53 -190 -2 -11 -5 -22 -8 -25 -4 -4 -22 -63
-34 -115 -2 -5 -10 -36 -20 -67 -10 -32 -17 -60 -17 -63 1 -3 -5 -21 -13 -40
-9 -20 -16 -39 -17 -43 -2 -12 -23 -2 -41 21 -9 12 -16 24 -15 27 2 5 -21 94
-30 120 -4 8 -7 20 -8 25 -3 10 -50 169 -65 218 -5 15 -6 27 -3 27 3 0 1 6 -4
13 -5 6 -20 50 -32 97 -13 47 -28 97 -33 112 -6 15 -10 31 -10 35 0 4 -6 23
-13 41 -8 17 -12 32 -10 32 3 0 0 12 -6 28 -6 15 -12 34 -14 42 -2 8 -18 62
-35 120 -17 58 -33 112 -35 120 -2 8 -16 53 -30 100 -14 47 -28 94 -31 105 -2
11 -12 47 -23 80 -20 65 -31 107 -29 115 1 3 -4 14 -10 26 -6 11 -13 32 -16
45 -3 13 -19 71 -37 129 -17 58 -32 110 -34 115 -1 6 -5 17 -8 25 -6 16 -74
247 -87 295 -4 17 -26 93 -49 170 -23 77 -44 145 -45 150 -1 6 -8 28 -14 50
-6 22 -12 43 -12 48 0 4 -6 23 -14 42 -9 20 -15 38 -16 40 0 3 0 6 -1 8 0 1
-2 9 -4 17 -1 8 -13 49 -26 90 -12 41 -24 80 -25 87 -1 7 -11 43 -23 80 -11
37 -36 122 -56 188 -20 66 -39 129 -41 140 -3 11 -7 27 -9 35 -2 8 -4 15 -5
15 -1 0 -3 7 -5 15 -4 15 -10 37 -65 225 -18 61 -33 115 -35 120 -1 6 -4 17
-7 25 -6 16 -47 153 -72 240 -30 105 -78 265 -83 280 -3 8 -7 22 -9 30 -3 16
-17 63 -55 190 -13 41 -24 81 -26 88 -6 23 -10 37 -16 52 -3 8 -13 40 -21 70
-7 30 -26 96 -41 145 -15 50 -28 97 -30 105 -2 8 -10 35 -18 60 -8 25 -30 97
-48 160 -17 63 -40 140 -50 170 l-18 55 -1345 3 -1346 2 0 -3740z m6733 1559
c-3 -163 -11 -321 -17 -326 -3 -3 -1 -14 5 -24 5 -11 6 -19 2 -19 -4 0 -9 -42
-11 -93 -1 -50 -4 -119 -6 -152 -3 -33 -5 -77 -5 -97 -1 -22 -6 -38 -13 -38
-16 0 -177 -58 -210 -76 -35 -19 -43 -5 -27 44 7 20 14 42 15 47 7 28 23 85
54 195 11 41 23 82 25 90 2 8 4 16 5 18 2 1 3 5 4 10 3 17 28 108 33 122 4 8
7 20 8 25 2 6 21 75 43 155 22 80 42 154 44 165 4 24 15 34 37 30 13 -2 16
-15 14 -76z"/>
</g>
</svg>
